<?xml version="1.0" standalone="no"?>
<!DOCTYPE svg PUBLIC "-//W3C//DTD SVG 20010904//EN"
 "http://www.w3.org/TR/2001/REC-SVG-20010904/DTD/svg10.dtd">
<svg version="1.0" xmlns="http://www.w3.org/2000/svg"
 width="479.000000pt" height="467.000000pt" viewBox="0 0 479.000000 467.000000"
 preserveAspectRatio="xMidYMid meet">

<g transform="translate(0.000000,467.000000) scale(0.100000,-0.100000)"
fill="#000000" stroke="none">
<path d="M953 3929 c-41 -8 -112 -48 -160 -92 -22 -20 -22 -20 -3 -45 11 -13
20 -31 20 -38 0 -12 53 -74 64 -74 2 0 -3 18 -11 40 -9 22 -21 40 -27 40 -12
0 64 70 77 70 4 0 21 10 36 21 16 12 44 22 62 24 19 2 40 3 48 4 9 1 5 9 -11
25 -34 31 -45 34 -95 25z"/>
<path d="M1900 3903 c-19 -3 -40 -9 -47 -15 -7 -5 -16 -7 -22 -4 -12 8 -134
-68 -186 -116 -22 -21 -46 -38 -52 -38 -22 0 -15 -81 9 -120 47 -75 49 -79 28
-90 -10 -5 -26 -10 -34 -10 -19 0 -20 -5 -6 -31 8 -15 7 -23 -5 -35 -8 -9 -13
-20 -10 -25 4 -5 1 -9 -4 -9 -6 0 -33 -11 -61 -24 -39 -19 -62 -23 -117 -21
-96 3 -213 34 -213 56 0 4 -8 10 -18 13 -10 4 -24 22 -31 41 -12 33 -8 63 15
119 5 13 4 17 -4 12 -6 -3 -20 -31 -31 -61 -18 -48 -19 -58 -7 -91 7 -21 21
-43 32 -48 10 -6 21 -14 24 -17 7 -9 53 -33 67 -35 6 -1 28 -8 49 -14 58 -19
164 -18 195 3 14 9 29 14 32 10 4 -3 7 -1 7 5 0 7 9 12 20 12 11 0 20 4 20 9
0 5 15 16 33 25 17 8 50 26 72 40 l40 24 39 -23 c21 -13 57 -41 80 -62 56 -54
79 -65 35 -17 -20 21 -49 54 -65 73 -16 19 -36 41 -45 50 -8 9 -33 39 -55 66
-21 28 -43 53 -47 56 -5 4 -7 24 -5 45 2 29 12 46 38 70 44 40 167 115 183
112 7 -1 21 3 32 9 45 25 276 -5 312 -41 3 -3 13 -6 21 -6 18 0 82 -69 82 -87
0 -7 5 -13 10 -13 6 0 10 -6 10 -12 0 -7 8 -22 16 -33 16 -19 16 -19 9 5 -25
85 -84 163 -145 191 -93 44 -209 64 -300 52z"/>
<path d="M1208 3747 c15 -16 35 -24 60 -25 20 -1 53 -6 72 -12 55 -16 66 -13
45 10 -22 24 -104 50 -159 50 l-39 0 21 -23z"/>
<path d="M2170 3703 c-71 -14 -190 -80 -190 -105 0 -11 22 -63 53 -128 12 -24
21 -50 19 -57 -3 -15 14 -18 22 -4 6 9 125 35 132 28 3 -2 -18 -14 -45 -26
-28 -12 -54 -27 -58 -35 -4 -7 -19 -19 -32 -26 -35 -18 -80 -60 -86 -81 -9
-26 -38 -24 -73 6 -16 13 -42 29 -58 35 -23 9 -17 0 31 -44 65 -59 101 -83
111 -73 4 4 1 13 -5 21 -17 20 -5 53 20 61 13 4 18 12 15 22 -4 10 -2 13 8 10
8 -3 16 -3 18 1 4 9 141 92 183 110 86 39 167 50 149 21 -6 -10 -63 -38 -81
-40 -57 -7 -273 -137 -273 -164 0 -3 26 9 58 26 31 18 78 44 105 57 26 14 47
28 47 33 0 5 7 9 16 9 8 0 25 5 37 12 49 27 80 10 42 -22 -9 -7 -14 -18 -12
-23 2 -6 -4 -19 -12 -28 -9 -10 -21 -24 -28 -32 -7 -9 -41 -17 -91 -21 -44 -4
-93 -11 -109 -16 -25 -7 -23 -9 22 -11 28 -1 59 -2 70 -1 11 1 51 4 89 7 38 2
75 10 82 16 9 7 14 8 14 1 0 -25 -14 -42 -34 -42 -24 0 -217 -47 -224 -55 -3
-3 22 -2 56 1 42 5 62 3 62 -4 0 -6 -4 -13 -9 -17 -6 -3 -8 -26 -6 -51 3 -36
1 -43 -9 -35 -7 6 -15 8 -18 5 -3 -3 -19 12 -34 33 -26 33 -49 57 -92 94 -7 6
-11 17 -8 25 8 21 -10 17 -40 -9 -21 -18 -26 -29 -21 -48 8 -30 54 -39 59 -12
2 13 9 10 32 -15 17 -17 33 -29 38 -26 4 3 8 -1 8 -9 0 -8 12 -22 26 -32 24
-15 24 -18 10 -34 -22 -25 -20 -40 9 -53 29 -13 49 -1 22 13 -20 12 -23 29 -4
29 6 0 22 -15 34 -33 28 -40 94 -108 119 -123 23 -13 25 -39 4 -39 -9 0 -14 7
-12 17 2 16 0 16 -22 6 -24 -10 -32 -5 -138 93 -252 233 -324 276 -435 259
-32 -5 -80 -11 -108 -14 -27 -3 -86 -14 -130 -25 -44 -12 -96 -21 -116 -21
-20 0 -53 -7 -73 -15 -20 -8 -36 -11 -36 -6 0 5 -7 8 -16 7 -9 -1 -36 0 -59 4
-32 5 -42 3 -38 -6 5 -15 89 -26 169 -23 33 2 108 15 168 31 61 16 153 37 205
48 l95 20 53 -26 c29 -15 60 -35 69 -46 10 -10 20 -18 25 -18 10 0 137 -118
257 -240 57 -58 104 -103 105 -101 4 8 47 -10 44 -19 -2 -8 83 -90 95 -90 4 0
13 -7 22 -15 13 -14 15 -13 13 5 -1 11 -5 20 -8 20 -4 0 -37 26 -73 57 l-64
57 25 23 25 23 36 -27 c47 -36 71 -50 102 -64 18 -8 21 -12 11 -19 -9 -5 -11
-17 -7 -34 8 -31 45 -36 71 -9 9 9 20 12 23 7 11 -15 79 -63 84 -59 2 2 5 -5
5 -17 3 -37 25 -50 71 -42 26 4 42 12 42 20 0 8 -6 14 -14 14 -14 0 -29 26
-22 38 2 4 27 18 55 32 28 14 51 28 51 33 0 4 8 7 18 7 9 0 28 9 42 20 14 11
29 20 34 20 5 0 31 16 59 36 28 20 55 37 61 38 6 1 16 4 21 8 13 7 47 4 64 -6
10 -6 1 -15 -30 -30 -91 -45 -224 -120 -231 -130 -4 -6 -8 -7 -8 -2 0 6 -9 0
-20 -12 -12 -12 -32 -29 -46 -38 -13 -9 -23 -19 -20 -21 2 -2 21 6 43 20 21
13 48 27 61 31 12 4 22 12 22 17 0 5 6 9 14 9 7 0 62 29 121 65 59 36 115 65
126 65 10 0 19 5 19 10 0 6 12 8 28 4 23 -5 22 -2 -13 20 -22 14 -50 26 -61
26 -34 0 -103 28 -134 52 -15 13 -40 32 -55 43 -27 19 -36 27 -63 60 -7 8 -24
15 -37 15 -17 0 -40 16 -72 50 -26 28 -53 50 -61 50 -18 0 -122 113 -142 153
-10 20 -26 34 -46 39 -28 7 -43 22 -79 79 -49 78 -69 99 -95 99 -18 0 -31 8
-39 23 -11 21 -11 21 -6 -5 4 -23 2 -28 -15 -28 -18 0 -19 3 -10 20 8 15 8 20
-3 20 -7 0 -18 20 -25 46 -7 25 -20 62 -29 82 -9 20 -16 44 -17 52 -1 16 -49
22 -96 13z m16 -45 c-1 -13 5 -36 13 -53 8 -16 14 -36 13 -42 -2 -7 1 -13 6
-13 15 0 24 -63 10 -71 -6 -4 -32 -10 -57 -14 -25 -4 -58 -16 -72 -26 l-27
-19 -7 31 c-10 43 -45 120 -63 138 -13 14 -12 17 14 28 16 7 37 12 46 13 9 0
18 3 20 8 2 4 26 15 53 24 28 9 51 17 51 17 1 1 0 -9 0 -21z m245 -259 c6 -12
7 -24 3 -28 -5 -3 -21 -28 -36 -56 -27 -50 -45 -62 -74 -51 -13 5 -12 11 9 35
13 16 33 50 43 75 21 50 37 58 55 25z m100 -91 c28 -28 27 -38 -3 -38 -10 0
-18 -4 -18 -8 0 -5 13 -7 28 -4 20 3 37 -4 59 -22 17 -14 36 -26 42 -26 6 0
11 -3 11 -7 0 -5 19 -27 41 -51 23 -24 39 -46 35 -49 -5 -5 -81 -7 -134 -4 -9
1 -5 15 13 44 30 53 31 61 5 54 -11 -3 -20 -1 -20 4 0 5 -50 8 -110 6 -94 -2
-110 0 -108 13 2 8 15 16 30 18 19 2 25 8 21 18 -3 7 -9 12 -13 9 -4 -3 5 20
22 51 34 62 32 62 99 -8z m-57 -119 c-4 -8 0 -9 15 -4 11 3 21 2 21 -3 0 -22
-23 -72 -33 -73 -7 0 -47 -6 -89 -13 -43 -7 -78 -9 -78 -5 0 25 36 79 52 79
10 0 18 4 18 10 0 5 13 7 29 4 16 -3 37 -1 48 5 23 13 26 13 17 0z m111 -5 c0
-5 -4 -24 -9 -41 -6 -28 -12 -33 -36 -33 l-29 0 16 38 c8 20 17 40 19 44 6 9
39 3 39 -8z m-568 -36 c-3 -8 -6 -5 -6 6 -1 11 2 17 5 13 3 -3 4 -12 1 -19z
m286 -17 c-14 -22 -25 -42 -24 -46 2 -7 -43 -45 -53 -45 -14 0 -4 44 16 73 27
41 47 57 69 57 16 0 15 -5 -8 -39z m464 -67 c15 -10 35 -17 43 -16 20 3 46
-38 30 -48 -20 -13 -58 0 -53 18 3 15 -10 17 -119 19 -68 2 -172 -4 -233 -12
-60 -8 -137 -17 -170 -20 l-59 -6 18 20 c11 12 21 19 24 16 3 -3 14 3 24 12
18 16 53 21 195 26 28 1 54 4 56 7 3 3 53 5 110 4 86 -1 111 -4 134 -20z
m-101 -62 c-4 -11 -17 -22 -29 -25 -12 -2 -45 -14 -74 -25 l-52 -21 11 27 c15
34 36 52 54 45 8 -3 14 0 14 5 0 7 14 9 35 5 25 -4 35 -2 35 7 0 7 3 11 6 7 3
-3 3 -14 0 -25z m94 3 c0 -10 -10 -15 -34 -15 -38 0 -57 16 -29 23 38 10 63 7
63 -8z m-250 -4 c0 -4 -7 -17 -16 -29 -9 -13 -14 -26 -11 -29 3 -3 -4 -16 -16
-28 -12 -13 -32 -34 -44 -48 -28 -30 -52 -30 -59 0 -5 16 -10 21 -18 14 -8 -7
-26 7 -58 44 l-47 53 54 1 c30 0 64 5 74 11 26 13 61 13 61 -1 0 -6 -8 -23
-18 -37 -10 -15 -22 -35 -25 -45 -12 -34 52 21 73 62 10 21 26 38 34 38 9 0
16 -3 16 -6z m407 -53 c34 -25 48 -44 49 -62 2 -27 -1 -28 -104 -40 -43 -6
-119 -28 -152 -46 -17 -9 -18 -7 -10 18 21 71 28 78 83 81 28 1 54 4 56 7 8 8
-22 24 -32 17 -4 -2 -34 -6 -65 -7 -31 -1 -73 -8 -92 -14 -99 -33 -134 -42
-167 -42 -35 0 -36 1 -19 19 10 11 31 23 47 26 16 4 42 13 58 21 15 8 50 18
77 23 27 5 50 13 51 18 2 5 17 7 33 5 17 -2 30 0 30 4 0 5 25 9 55 9 47 -1 61
-6 102 -37z m117 -57 l36 -29 -35 -4 c-46 -5 -59 4 -51 36 3 14 8 26 10 26 2
0 20 -13 40 -29z m-344 -15 c0 -3 -5 -17 -11 -33 -6 -15 -9 -29 -7 -30 6 -3
-46 -53 -55 -53 -5 0 -7 14 -3 33 3 17 7 41 8 52 2 12 13 23 28 26 35 9 40 10
40 5z m-85 -33 c-24 -56 -39 -103 -34 -107 14 -15 56 -12 74 5 21 18 164 69
196 69 10 0 21 5 24 10 3 6 21 10 39 10 17 0 38 6 45 13 11 10 12 9 6 -2 -5
-10 -3 -12 11 -7 11 3 41 8 68 11 28 4 53 8 56 10 4 3 16 -2 26 -10 19 -14 19
-14 -1 -15 -11 0 -33 -7 -50 -16 -16 -9 -41 -16 -55 -15 -27 2 -110 -20 -110
-29 0 -3 -24 -6 -53 -7 -90 -4 -267 -64 -267 -91 0 -8 -6 -12 -12 -9 -7 2 -12
13 -11 24 2 21 -45 66 -117 110 -20 13 -29 23 -20 24 8 1 20 3 25 3 6 1 30 7
55 14 25 6 56 13 70 15 14 3 29 5 34 6 4 0 5 -7 1 -16z m355 -83 c-14 -11 -39
-27 -57 -35 -18 -9 -35 -20 -38 -25 -4 -6 -11 -8 -16 -5 -5 4 -9 2 -9 -4 0 -5
-15 -20 -32 -32 -18 -12 -27 -16 -20 -9 6 8 12 29 12 47 0 26 4 33 20 33 11 0
20 3 20 8 0 4 16 8 36 9 20 1 45 9 57 17 33 23 57 19 27 -4z m-195 -86 c-23
-76 -28 -77 -103 -16 l-24 18 24 16 c24 16 53 24 95 27 22 1 22 0 8 -45z m-1
-106 c-3 -5 -12 -4 -20 3 -7 6 -11 15 -8 21 3 5 12 4 20 -3 7 -6 11 -15 8 -21z"/>
<path d="M2433 3257 c2 -6 15 -10 28 -9 40 6 42 19 4 20 -25 1 -35 -2 -32 -11z"/>
<path d="M2873 2932 c-13 -2 -23 -8 -23 -13 0 -6 5 -7 10 -4 6 4 10 -7 10 -24
0 -38 17 -41 26 -3 4 15 11 30 16 33 13 9 -12 16 -39 11z"/>
<path d="M941 3568 c-48 -108 -53 -146 -60 -488 l-6 -315 -29 -52 c-16 -29
-33 -53 -38 -53 -5 0 -6 5 -2 12 4 6 3 8 -3 5 -6 -4 -16 -36 -23 -72 -24 -128
13 -278 90 -365 17 -19 39 -44 49 -55 10 -11 23 -29 29 -41 10 -19 81 -45 125
-45 9 0 17 -5 17 -10 0 -6 5 -7 10 -4 6 3 13 -1 16 -9 3 -9 10 -13 15 -10 5 3
9 0 9 -5 0 -6 -6 -11 -12 -11 -7 -1 3 -8 22 -16 27 -12 93 -16 298 -20 260 -5
264 -5 342 -34 43 -16 87 -33 97 -39 10 -5 33 -15 51 -21 17 -7 32 -16 32 -20
0 -5 35 -29 78 -54 42 -26 84 -51 92 -56 17 -10 104 -50 164 -74 21 -9 47 -16
58 -16 10 0 30 -7 43 -16 31 -20 198 -54 290 -59 28 -1 58 -6 67 -10 9 -3 68
-4 131 -1 120 5 218 30 323 82 27 13 60 26 72 29 25 4 45 22 55 48 3 9 15 17
25 17 11 0 36 16 56 35 21 19 42 33 47 30 17 -11 31 6 18 21 -8 10 -8 14 0 14
6 0 11 -4 11 -10 0 -17 25 -11 40 10 8 11 20 20 26 20 21 0 74 57 69 73 -4 8
12 50 34 93 40 80 62 164 42 164 -6 0 -7 9 -1 28 26 75 12 188 -33 264 -36 62
-133 151 -205 187 -74 37 -95 41 -33 6 72 -42 116 -81 157 -142 21 -32 41 -60
44 -63 13 -13 27 -97 26 -159 -2 -84 -12 -95 -90 -100 -33 -1 -82 -10 -110
-18 -28 -8 -64 -16 -81 -16 -20 -1 -31 -8 -33 -19 -2 -10 -8 -18 -13 -18 -5 0
-18 -18 -29 -41 -29 -57 -69 -95 -123 -119 -25 -11 -48 -24 -51 -29 -3 -4 -23
-13 -45 -21 -24 -8 -43 -21 -47 -33 -4 -13 -9 -16 -17 -8 -12 12 -47 -3 -47
-22 0 -8 3 -8 9 2 6 9 11 10 15 3 4 -6 21 -9 39 -6 17 2 54 6 81 9 27 3 53 8
57 11 18 10 9 34 -13 34 -24 0 -19 10 7 14 9 1 20 7 23 12 4 5 14 10 22 12 37
8 78 45 95 84 42 102 46 105 150 115 33 3 78 11 100 19 22 8 50 14 63 14 32 0
29 -38 -8 -119 -25 -53 -41 -73 -80 -100 -27 -19 -62 -46 -77 -62 -15 -16 -32
-29 -38 -29 -5 0 -21 -12 -35 -26 -13 -14 -33 -30 -45 -35 -11 -5 -27 -13 -35
-18 -121 -69 -270 -130 -340 -137 -99 -11 -338 0 -354 16 -6 6 -28 10 -50 10
-40 0 -83 11 -144 37 -18 8 -54 21 -80 28 -26 8 -65 24 -87 35 -21 11 -45 20
-52 20 -7 0 -50 22 -94 50 -44 28 -84 50 -89 50 -5 0 -10 4 -12 8 -6 16 -76
52 -167 87 -93 36 -94 36 -205 29 -205 -12 -382 -10 -399 5 -9 7 -23 11 -31 8
-9 -4 -17 2 -21 14 -4 10 -16 20 -28 21 -41 2 -46 3 -53 11 -4 4 -14 7 -23 7
-8 0 -25 10 -38 22 -13 12 -23 16 -23 10 0 -7 5 -12 12 -12 9 0 8 -3 -1 -12
-11 -11 -15 -10 -19 1 -3 8 -16 25 -28 38 -13 13 -24 26 -24 29 0 3 -6 11 -12
18 -42 44 -108 146 -93 146 3 0 -1 12 -8 28 -18 36 -22 161 -7 209 22 71 20
69 29 55 5 -9 16 4 34 42 26 54 26 59 28 288 0 128 3 254 6 280 l5 46 32 -21
c17 -12 45 -34 60 -49 56 -51 202 -111 271 -112 64 0 254 54 350 100 28 13 58
24 67 24 9 0 20 5 23 10 10 15 -13 12 -95 -15 -41 -14 -85 -25 -97 -25 -13 0
-23 -4 -23 -8 0 -5 -42 -19 -94 -31 -69 -17 -110 -22 -154 -18 -68 7 -165 38
-204 67 -15 11 -31 20 -35 20 -4 0 -26 20 -47 45 -22 24 -43 42 -46 40 -4 -2
-3 18 1 44 8 50 52 156 70 167 16 10 -11 34 -37 34 -18 0 -28 -10 -43 -42z
m236 -1524 c-3 -3 -12 -4 -19 -1 -8 3 -5 6 6 6 11 1 17 -2 13 -5z m636 -31
c-7 -2 -19 -2 -25 0 -7 3 -2 5 12 5 14 0 19 -2 13 -5z m1457 -229 c0 -8 -19
-13 -24 -6 -3 5 1 9 9 9 8 0 15 -2 15 -3z"/>
<path d="M2352 3570 c0 -14 2 -19 5 -12 2 6 2 18 0 25 -3 6 -5 1 -5 -13z"/>
<path d="M1768 3303 c6 -2 18 -2 25 0 6 3 1 5 -13 5 -14 0 -19 -2 -12 -5z"/>
<path d="M970 3185 c14 -15 42 -36 63 -46 31 -16 37 -17 37 -4 0 9 -9 15 -24
15 -13 0 -26 7 -30 15 -3 8 -12 15 -21 15 -8 0 -15 4 -15 9 0 5 -8 12 -17 15
-13 5 -10 -1 7 -19z"/>
<path d="M1080 3130 c0 -10 32 -30 49 -30 20 0 11 17 -14 28 -31 14 -35 15
-35 2z"/>
<path d="M1366 3032 c-2 -4 7 -9 21 -10 14 -1 51 -9 82 -17 31 -9 65 -18 76
-20 150 -34 207 -49 197 -53 -16 -5 -16 -62 1 -62 9 0 9 -2 -1 -8 -9 -6 -10
-16 -3 -34 6 -17 6 -29 -1 -36 -8 -8 -8 -15 1 -26 9 -11 9 -16 0 -21 -8 -6 -7
-10 2 -16 10 -7 11 -11 3 -16 -7 -5 -11 -20 -9 -34 5 -46 -4 -50 -86 -33 -40
8 -90 19 -109 24 -55 15 -152 21 -145 9 4 -5 12 -9 18 -7 16 2 120 -20 177
-38 43 -13 126 -31 180 -38 43 -6 114 -28 128 -38 15 -13 15 -6 17 215 l1 167
-27 0 c-15 0 -43 7 -62 15 -20 8 -52 15 -70 15 -30 0 -102 16 -217 48 -49 14
-168 24 -174 14z"/>
<path d="M1352 2968 c-5 -23 -7 -77 -5 -118 1 -41 3 -94 4 -118 0 -28 5 -42
12 -39 8 2 11 49 9 157 -1 84 -4 155 -6 158 -3 2 -9 -16 -14 -40z"/>
<path d="M910 2675 c0 -5 5 -17 10 -25 5 -8 10 -10 10 -5 0 6 -5 17 -10 25 -5
8 -10 11 -10 5z"/>
<path d="M2490 2617 c0 -16 41 -43 100 -67 19 -8 38 -19 42 -24 5 -7 8 -5 8 5
0 10 -11 20 -27 24 -16 3 -37 15 -48 24 -11 10 -32 26 -47 36 -24 15 -28 15
-28 2z"/>
<path d="M1015 2552 c17 -15 50 -36 75 -46 25 -11 59 -30 77 -43 17 -13 38
-23 47 -23 8 0 41 -7 73 -16 53 -14 153 -21 358 -25 44 -1 86 -5 95 -9 88 -41
133 -66 137 -77 3 -7 9 -13 15 -13 5 0 40 -25 78 -55 38 -30 75 -55 82 -55 7
0 19 -9 25 -19 7 -10 46 -38 87 -61 42 -22 78 -45 81 -51 4 -5 13 -9 21 -9 9
0 49 -16 89 -36 41 -19 80 -34 87 -33 13 2 36 -5 73 -22 11 -6 43 -11 71 -13
28 -1 56 -6 62 -10 7 -4 17 -4 22 -1 6 4 17 2 24 -4 7 -6 26 -10 42 -10 16 1
40 -1 54 -4 71 -16 90 -16 90 -2 0 17 -18 21 -115 30 -77 8 -224 37 -268 54
-16 6 -33 9 -38 5 -5 -3 -9 0 -9 5 0 6 -5 11 -12 11 -6 0 -19 6 -27 14 -9 7
-41 21 -71 30 -30 10 -64 26 -75 36 -11 10 -31 21 -44 25 -14 4 -48 24 -75 43
-28 20 -77 54 -110 76 -32 22 -61 46 -63 53 -3 7 -10 13 -15 13 -6 0 -31 15
-57 33 -51 37 -122 72 -135 69 -4 -2 -15 3 -24 10 -11 10 -71 13 -231 14
l-216 1 -100 38 c-55 20 -107 43 -116 51 -8 8 -20 14 -26 14 -5 0 -18 9 -28
20 -10 11 -23 20 -29 20 -6 0 3 -13 19 -28z"/>
<path d="M2650 2522 c0 -5 7 -13 16 -16 10 -4 14 -1 12 6 -5 15 -28 23 -28 10z"/>
<path d="M2700 2495 c7 -8 17 -15 22 -15 6 0 5 7 -2 15 -7 8 -17 15 -22 15 -6
0 -5 -7 2 -15z"/>
<path d="M2895 1920 c3 -5 22 -10 41 -10 19 0 34 5 34 10 0 6 -18 10 -41 10
-24 0 -38 -4 -34 -10z"/>
<path d="M3660 1546 c0 -2 -7 -21 -16 -42 l-16 -39 31 29 c35 33 37 41 16 50
-8 3 -15 4 -15 2z"/>
<path d="M507 1526 c-194 -53 -186 -353 11 -395 55 -11 132 -1 159 21 8 6 13
33 13 69 0 49 3 59 20 64 41 13 18 25 -50 25 -70 0 -93 -12 -45 -24 23 -6 25
-11 25 -66 0 -56 -2 -60 -26 -66 -38 -10 -104 2 -133 24 -36 26 -54 67 -59
132 -8 107 31 179 109 200 59 16 101 1 113 -39 11 -39 40 -39 44 1 6 51 -89
79 -181 54z"/>
<path d="M823 1523 c-16 -6 -17 -39 -2 -49 6 -3 18 1 27 10 14 14 14 18 2 30
-8 7 -21 12 -27 9z"/>
<path d="M1700 1480 c0 -27 4 -50 8 -50 5 0 16 18 25 40 l15 40 81 0 c48 0 81
-4 81 -10 0 -6 -15 -32 -33 -58 -135 -193 -198 -292 -192 -301 4 -7 59 -11
151 -11 l144 0 0 50 c0 60 -12 65 -29 10 l-12 -40 -100 0 c-92 0 -99 1 -90 18
5 9 59 89 120 176 84 122 108 163 99 173 -8 9 -45 13 -139 13 l-129 0 0 -50z"/>
<path d="M2928 1435 c-6 -13 -19 -27 -30 -30 -22 -8 -24 -25 -3 -25 12 0 15
-17 15 -94 0 -109 10 -143 44 -156 27 -10 86 4 86 21 0 5 -11 4 -25 -3 -46
-21 -55 0 -55 123 l0 109 35 0 c19 0 35 5 35 10 0 6 -16 10 -35 10 -32 0 -35
2 -35 30 0 36 -16 39 -32 5z"/>
<path d="M800 1390 c-17 -5 -19 -8 -7 -9 15 -1 17 -14 17 -121 0 -101 3 -122
16 -127 9 -3 20 0 25 8 12 20 11 216 -1 240 -12 21 -13 21 -50 9z"/>
<path d="M950 1391 c-25 -7 -25 -7 -2 -13 21 -6 22 -10 22 -127 0 -112 1 -121
19 -121 17 0 19 10 23 101 3 96 4 102 31 125 34 29 51 30 77 4 17 -17 20 -33
20 -113 0 -99 7 -117 47 -117 26 0 31 15 8 24 -12 4 -15 25 -15 95 0 80 -3 93
-23 117 -32 37 -78 37 -117 -1 -27 -26 -30 -27 -30 -9 0 19 -18 45 -29 43 -4
-1 -17 -4 -31 -8z"/>
<path d="M1328 1382 c-42 -22 -68 -73 -68 -137 0 -60 19 -91 66 -111 34 -14
81 -6 95 18 5 7 16 4 34 -10 32 -25 65 -20 41 7 -11 12 -16 46 -18 130 l-3
112 -57 4 c-38 2 -67 -2 -90 -13z m96 -8 c13 -5 16 -22 16 -79 0 -89 -14 -133
-48 -146 -52 -20 -92 23 -92 100 0 98 54 152 124 125z"/>
<path d="M2088 1382 c-42 -22 -68 -73 -68 -137 0 -60 19 -91 67 -112 32 -13
39 -12 73 5 36 17 38 17 59 1 12 -10 29 -15 37 -12 13 5 13 7 0 22 -11 12 -16
46 -18 130 l-3 112 -57 4 c-38 2 -67 -2 -90 -13z m96 -8 c21 -8 22 -140 2
-188 -36 -86 -126 -41 -126 63 0 98 54 152 124 125z"/>
<path d="M2305 1390 c-17 -7 -17 -9 -2 -9 16 -1 17 -17 17 -186 l0 -185 26
-16 c19 -13 28 -14 37 -5 9 10 8 14 -5 22 -16 9 -18 27 -18 140 0 141 11 184
51 213 32 22 46 20 74 -9 31 -30 33 -82 6 -142 -20 -43 -45 -63 -80 -63 -12 0
-21 -5 -21 -11 0 -16 69 -2 99 20 48 34 65 68 65 126 0 61 -25 99 -72 108 -30
6 -91 -19 -99 -40 -7 -18 -23 -6 -23 17 0 14 -23 34 -33 29 -1 0 -11 -4 -22
-9z"/>
<path d="M2685 1386 c-63 -28 -95 -102 -75 -175 20 -75 101 -110 150 -66 19
18 23 18 33 4 16 -21 41 -29 58 -19 11 7 10 10 -4 16 -15 5 -17 22 -17 125 l0
119 -29 0 c-16 0 -41 2 -57 5 -16 3 -42 -1 -59 -9z m93 -104 c3 -87 1 -94 -22
-117 -32 -31 -50 -31 -81 0 -21 20 -25 34 -25 79 0 98 28 139 90 134 l35 -3 3
-93z"/>
<path d="M3151 1387 c-69 -25 -101 -117 -66 -191 19 -40 50 -60 105 -69 39 -6
101 11 108 30 2 9 -7 8 -33 -3 -60 -25 -121 2 -139 62 -6 20 -1 22 66 32 59 9
77 16 96 37 12 14 22 32 22 40 0 8 -10 25 -22 39 -28 31 -88 41 -137 23z m104
-31 c13 -20 14 -29 5 -46 -14 -26 -67 -50 -110 -50 -26 0 -30 4 -30 25 0 31
24 81 42 88 35 14 78 6 93 -17z"/>
<path d="M3370 1391 c-25 -7 -25 -7 -2 -13 21 -6 22 -10 22 -127 0 -114 1
-121 20 -121 18 0 20 7 20 85 0 94 16 140 53 155 17 6 26 3 39 -13 16 -21 17
-21 24 -3 5 13 2 23 -10 32 -22 15 -42 9 -78 -24 -26 -24 -28 -24 -28 -6 0 19
-18 45 -29 43 -4 -1 -17 -4 -31 -8z"/>
<path d="M3610 1389 c-16 -4 -19 -7 -7 -8 15 -1 17 -14 17 -126 0 -118 1 -125
20 -125 19 0 20 7 20 129 0 138 -2 144 -50 130z"/>
<path d="M3830 1386 c-47 -15 -72 -55 -78 -119 -5 -60 14 -109 49 -127 30 -16
75 -15 101 2 22 14 26 14 46 -3 13 -10 30 -15 38 -12 13 5 13 7 0 22 -11 12
-16 46 -18 130 l-3 113 -51 2 c-28 2 -66 -2 -84 -8z m84 -12 c13 -5 16 -22 16
-84 0 -93 -11 -126 -45 -142 -59 -27 -105 41 -91 135 12 79 59 114 120 91z"/>
<path d="M4072 1230 c-22 -21 -22 -23 -6 -41 22 -24 41 -24 54 0 7 14 5 24 -8
41 l-17 21 -23 -21z m36 -28 c2 -7 -3 -12 -12 -12 -9 0 -16 7 -16 16 0 17 22
14 28 -4z"/>
<path d="M1242 928 c-42 -21 -43 -79 -1 -110 26 -19 79 -17 79 3 0 5 -11 7
-25 3 -18 -4 -32 -1 -45 11 -40 36 -11 91 41 80 34 -8 40 10 7 19 -28 7 -28 7
-56 -6z"/>
<path d="M1420 927 c-56 -28 -45 -106 16 -121 66 -17 111 71 58 113 -31 24
-40 25 -74 8z m65 -27 c36 -40 -7 -96 -55 -70 -25 14 -27 65 -2 79 25 15 37
13 57 -9z"/>
<path d="M1590 870 c0 -40 4 -70 10 -70 6 0 10 19 10 43 l1 42 38 -42 c21 -24
41 -43 45 -43 3 0 6 32 6 70 0 40 -4 70 -10 70 -5 0 -10 -18 -10 -40 0 -22 -4
-40 -8 -40 -5 0 -21 18 -38 40 -16 22 -32 40 -36 40 -5 0 -8 -31 -8 -70z"/>
<path d="M1862 873 l3 -68 39 -3 c21 -2 43 1 49 7 8 8 0 11 -26 11 l-37 0 0
60 c0 47 -3 60 -15 60 -13 0 -15 -12 -13 -67z"/>
<path d="M2025 875 c-15 -36 -24 -69 -21 -73 4 -4 12 1 17 11 7 11 22 17 44
17 22 0 37 -6 44 -17 5 -10 13 -15 17 -11 9 10 -48 138 -62 138 -6 0 -24 -29
-39 -65z m65 -17 c0 -5 -11 -8 -25 -8 -29 0 -29 0 -13 35 l12 26 13 -23 c7
-13 12 -26 13 -30z"/>
<path d="M2208 929 c-30 -17 -22 -48 17 -65 20 -8 35 -21 35 -30 0 -13 -7 -15
-35 -11 -40 7 -48 -8 -9 -17 32 -8 77 18 72 42 -2 9 -19 22 -38 28 -45 15 -47
40 -2 38 34 -2 43 10 16 20 -22 8 -36 7 -56 -5z"/>
<path d="M2430 930 c0 -5 11 -10 25 -10 25 0 33 -14 15 -25 -17 -11 -11 -32
12 -38 18 -5 19 -8 8 -22 -9 -10 -22 -14 -36 -11 -13 4 -25 2 -28 -3 -11 -17
45 -22 70 -6 28 18 30 32 7 57 -13 14 -14 21 -5 30 24 24 13 38 -28 38 -22 0
-40 -4 -40 -10z"/>
<path d="M2670 869 l0 -72 51 5 c62 6 86 32 55 60 -10 10 -11 17 -2 31 15 25
-15 47 -66 47 l-38 0 0 -71z m79 42 c21 -13 4 -31 -30 -31 -27 0 -39 17 -22
33 9 10 35 8 52 -2z m9 -68 c-2 -12 -14 -19 -36 -21 -27 -3 -32 0 -32 17 0 17
6 21 36 21 28 0 35 -3 32 -17z"/>
<path d="M2850 869 l0 -72 51 5 c62 6 86 32 55 60 -10 10 -11 17 -2 31 15 25
-15 47 -66 47 l-38 0 0 -71z m79 42 c21 -13 4 -31 -30 -31 -27 0 -39 17 -22
33 9 10 35 8 52 -2z m9 -68 c-2 -12 -14 -19 -36 -21 -27 -3 -32 0 -32 17 0 17
6 21 36 21 28 0 35 -3 32 -17z"/>
<path d="M3030 869 l0 -72 51 5 c62 6 86 32 55 60 -10 10 -11 17 -2 31 15 25
-15 47 -66 47 l-38 0 0 -71z m79 42 c21 -13 4 -31 -30 -31 -27 0 -39 17 -22
33 9 10 35 8 52 -2z m9 -68 c-2 -12 -14 -19 -36 -21 -27 -3 -32 0 -32 17 0 17
6 21 36 21 28 0 35 -3 32 -17z"/>
</g>
</svg>
